<svg xmlns="http://www.w3.org/2000/svg" xmlns:xlink="http://www.w3.org/1999/xlink" width="200" height="200" class="icon" p-id="1276" t="1666333951183" version="1.1" viewBox="0 0 1024 1024"><path d="M512 864.416l0.032-32-0.064 0.032L512 864.416zM736 64 288 64c-35.328 0-64 28.672-64 64l0 768c0 35.328 28.672 64 64 64l448 0c35.328 0 64-28.672 64-64L800 128C800 92.672 771.328 64 736 64zM512 896.416c-35.296 0-64-28.704-64-64 0-35.296 28.704-64 64-64s64 28.704 64 64C576 867.712 547.296 896.416 512 896.416zM704 704 320 704 320 160l384 0L704 704z" p-id="1277"/></svg>