<svg xmlns="http://www.w3.org/2000/svg" xmlns:xlink="http://www.w3.org/1999/xlink" width="200" height="200" class="icon" p-id="1295" t="1660100497278" version="1.1" viewBox="0 0 1024 1024"><defs><style type="text/css">@font-face{font-family:feedback-iconfont;src:url(//at.alicdn.com/t/font_1031158_u69w8yhxdu.woff2?t=1630033759944) format(&quot;woff2&quot;),url(//at.alicdn.com/t/font_1031158_u69w8yhxdu.woff?t=1630033759944) format(&quot;woff&quot;),url(//at.alicdn.com/t/font_1031158_u69w8yhxdu.ttf?t=1630033759944) format(&quot;truetype&quot;)}</style></defs><path d="M0 0m42.666667 0l0 0q42.666667 0 42.666666 42.666667l0 938.666666q0 42.666667-42.666666 42.666667l0 0q-42.666667 0-42.666667-42.666667l0-938.666666q0-42.666667 42.666667-42.666667Z" p-id="1296"/><path d="M0 938.666667m42.666667 0l938.666666 0q42.666667 0 42.666667 42.666666l0 0q0 42.666667-42.666667 42.666667l-938.666666 0q-42.666667 0-42.666667-42.666667l0 0q0-42.666667 42.666667-42.666666Z" p-id="1297"/><path d="M576 661.333333m-106.666667 0a106.666667 106.666667 0 1 0 213.333334 0 106.666667 106.666667 0 1 0-213.333334 0Z" p-id="1298"/><path d="M512 384m-85.333333 0a85.333333 85.333333 0 1 0 170.666666 0 85.333333 85.333333 0 1 0-170.666666 0Z" p-id="1299"/><path d="M789.333333 149.333333m-64 0a64 64 0 1 0 128 0 64 64 0 1 0-128 0Z" p-id="1300"/><path d="M256 725.333333m-85.333333 0a85.333333 85.333333 0 1 0 170.666666 0 85.333333 85.333333 0 1 0-170.666666 0Z" p-id="1301"/><path d="M789.333333 362.666667m-64 0a64 64 0 1 0 128 0 64 64 0 1 0-128 0Z" p-id="1302"/></svg>