<svg xmlns="http://www.w3.org/2000/svg" xmlns:xlink="http://www.w3.org/1999/xlink" width="200" height="200" class="icon" p-id="1157" t="1659751657442" version="1.1" viewBox="0 0 1024 1024"><defs><style type="text/css">@font-face{font-family:feedback-iconfont;src:url(//at.alicdn.com/t/font_1031158_u69w8yhxdu.woff2?t=1630033759944) format(&quot;woff2&quot;),url(//at.alicdn.com/t/font_1031158_u69w8yhxdu.woff?t=1630033759944) format(&quot;woff&quot;),url(//at.alicdn.com/t/font_1031158_u69w8yhxdu.ttf?t=1630033759944) format(&quot;truetype&quot;)}</style></defs><path d="M149.346133 874.935467h756.718934c17.6768 0 32 13.294933 32 30.967466a32 32 0 0 1-32 32H117.998933a32 32 0 0 1-32-32V119.466667a32 32 0 0 1 32-32c17.672533 0 31.3472 14.327467 31.3472 32v755.4688zM479.146667 415.36l-209.1776 207.5904a32 32 0 0 1-47.940267-42.397867l230.020267-231.163733a32 32 0 0 1 44.765866-3.1232l138.9568 141.9008 245.184-243.2a32 32 0 1 1 47.2832 43.127467l-266.065066 266.094933a32 32 0 0 1-44.433067 2.756267L479.146667 415.364267z" p-id="1158"/></svg>